<?xml version="1.0" encoding="utf-8"?>
<!-- Generator: Adobe Illustrator 16.0.0, SVG Export Plug-In . SVG Version: 6.00 Build 0)  -->
<!DOCTYPE svg PUBLIC "-//W3C//DTD SVG 1.1//EN" "http://www.w3.org/Graphics/SVG/1.1/DTD/svg11.dtd">
<svg version="1.1" id="Layer_1" xmlns="http://www.w3.org/2000/svg" xmlns:xlink="http://www.w3.org/1999/xlink" x="0px" y="0px"
	 width="20px" height="20px" viewBox="0 0 20 20" enable-background="new 0 0 20 20" xml:space="preserve">
<path fill="#FFFFFF" d="M0,0v20h9.285c0-0.003,0-0.007,0-0.01c0-2.745,0-5.489,0-8.234c0-0.058,0-0.058-0.058-0.058
	c-0.904,0-1.808,0-2.711,0c-0.016,0-0.032,0.001-0.047,0.002c0-1.082,0-2.164,0-3.247c0.003,0,0.007,0,0.011,0
	c0.921,0,1.842,0,2.762,0.001c0.037,0,0.044-0.014,0.044-0.047c-0.002-0.784,0-1.57-0.002-2.355C9.283,5.757,9.3,5.465,9.342,5.173
	c0.039-0.271,0.099-0.538,0.184-0.799c0.155-0.48,0.387-0.919,0.715-1.304c0.467-0.547,1.056-0.904,1.737-1.115
	c0.237-0.073,0.479-0.125,0.726-0.155c0.169-0.02,0.339-0.044,0.509-0.048c0.292-0.006,0.586,0,0.879,0.004
	c0.188,0.002,0.379,0.009,0.567,0.016c0.098,0.003,0.194,0.009,0.292,0.016c0.171,0.011,0.343,0.022,0.515,0.036
	c0.099,0.007,0.196,0.018,0.295,0.027c0.073,0.007,0.146,0.014,0.222,0.021c0,0.97,0,1.939,0,2.909
	c-0.019-0.001-0.034-0.002-0.051-0.002c-0.502,0-1.005-0.001-1.507,0c-0.161,0-0.321,0.006-0.483,0.015
	c-0.168,0.009-0.334,0.042-0.496,0.096c-0.291,0.098-0.516,0.272-0.648,0.554c-0.1,0.208-0.138,0.431-0.15,0.658
	c-0.008,0.152-0.008,0.305-0.008,0.458c0,0.613,0,1.226,0,1.839c0,0.054,0,0.054,0.055,0.054c0.013,0,0.024,0,0.037,0
	c1.023,0,2.047,0,3.07,0c0.014,0,0.027-0.002,0.04,0.001c0.009,0.002,0.021,0.015,0.021,0.022c-0.008,0.059-0.016,0.118-0.022,0.177
	c-0.021,0.143-0.037,0.285-0.057,0.427c-0.019,0.141-0.035,0.283-0.054,0.424c-0.02,0.144-0.037,0.287-0.057,0.431
	c-0.02,0.142-0.037,0.285-0.056,0.427c-0.019,0.141-0.036,0.283-0.054,0.424c-0.02,0.141-0.037,0.282-0.056,0.423
	c-0.019,0.145-0.038,0.288-0.056,0.432c-0.008,0.055-0.006,0.055-0.061,0.055c-0.896,0-1.791,0-2.688,0
	c-0.073,0-0.066-0.006-0.066,0.068c0,2.74,0,5.481,0,8.223c0,0.004,0,0.008,0,0.012H20V0H0z"/>
</svg>
