<?xml version="1.0" encoding="utf-8"?>
<!-- Generator: Adobe Illustrator 16.0.0, SVG Export Plug-In . SVG Version: 6.00 Build 0)  -->
<!DOCTYPE svg PUBLIC "-//W3C//DTD SVG 1.1//EN" "http://www.w3.org/Graphics/SVG/1.1/DTD/svg11.dtd">
<svg version="1.1" id="Layer_1" xmlns="http://www.w3.org/2000/svg" xmlns:xlink="http://www.w3.org/1999/xlink" x="0px" y="0px"
	 width="20px" height="20px" viewBox="0 0 20 20" enable-background="new 0 0 20 20" xml:space="preserve">
<path fill="#FFFFFF" d="M19.4,17.281l-3.681-3.682c0.985-1.404,1.567-3.11,1.567-4.956C17.287,3.869,13.42,0,8.644,0
	C3.868,0,0,3.869,0,8.644s3.868,8.644,8.644,8.644c1.846,0,3.552-0.583,4.955-1.567l3.681,3.682
	c0.293,0.293,0.677,0.439,1.061,0.439s0.768-0.146,1.061-0.439C19.986,18.817,19.986,17.867,19.4,17.281z M8.644,14.287
	C5.532,14.287,3,11.755,3,8.644S5.532,3,8.644,3c3.112,0,5.644,2.532,5.644,5.644S11.756,14.287,8.644,14.287z"/>
</svg>
