<?xml version="1.0" encoding="utf-8"?>
<!-- Generator: Adobe Illustrator 16.0.0, SVG Export Plug-In . SVG Version: 6.00 Build 0)  -->
<!DOCTYPE svg PUBLIC "-//W3C//DTD SVG 1.1//EN" "http://www.w3.org/Graphics/SVG/1.1/DTD/svg11.dtd">
<svg version="1.1" id="Layer_1" xmlns="http://www.w3.org/2000/svg" xmlns:xlink="http://www.w3.org/1999/xlink" x="0px" y="0px"
	 width="20px" height="20px" viewBox="0 0 20 20" enable-background="new 0 0 20 20" xml:space="preserve">
<path fill="#FFFFFF" d="M0,16.303c2.246,0.2,4.23-0.341,6.045-1.708c-0.916-0.034-1.698-0.306-2.385-0.823
	c-0.684-0.516-1.165-1.181-1.446-2.03c0.61,0.091,1.19,0.089,1.801-0.078c-1.118-0.278-1.981-0.866-2.592-1.805
	C0.983,9.18,0.769,8.433,0.772,7.607c0.3,0.112,0.582,0.24,0.877,0.323c0.29,0.082,0.593,0.118,0.903,0.149
	C1.706,7.422,1.131,6.604,0.904,5.56C0.68,4.525,0.835,3.548,1.358,2.608C3.584,5.224,6.39,6.661,9.82,6.902
	C9.796,6.67,9.768,6.454,9.75,6.238c-0.173-2.149,1.43-4.088,3.557-4.349c1.295-0.159,2.424,0.209,3.375,1.098
	c0.131,0.123,0.241,0.144,0.408,0.104c0.771-0.183,1.506-0.461,2.196-0.849c0.044-0.025,0.09-0.045,0.173-0.086
	c-0.316,0.959-0.893,1.67-1.686,2.25c0.242-0.044,0.485-0.078,0.726-0.134c0.253-0.059,0.504-0.131,0.752-0.21
	c0.239-0.076,0.474-0.168,0.709-0.254c0.013,0.015,0.026,0.029,0.04,0.044c-0.323,0.38-0.63,0.776-0.975,1.136
	c-0.278,0.291-0.6,0.543-0.909,0.8c-0.101,0.083-0.146,0.16-0.144,0.292c0.053,1.884-0.328,3.683-1.141,5.378
	c-1.51,3.153-3.9,5.304-7.3,6.26c-1.491,0.419-3.013,0.521-4.554,0.351c-1.759-0.191-3.383-0.764-4.886-1.69
	C0.073,16.365,0.057,16.348,0,16.303z"/>
</svg>
