<?xml version="1.0" encoding="utf-8"?>
<!-- Generator: Adobe Illustrator 16.0.0, SVG Export Plug-In . SVG Version: 6.00 Build 0)  -->
<!DOCTYPE svg PUBLIC "-//W3C//DTD SVG 1.1//EN" "http://www.w3.org/Graphics/SVG/1.1/DTD/svg11.dtd">
<svg version="1.1" id="Layer_1" xmlns="http://www.w3.org/2000/svg" xmlns:xlink="http://www.w3.org/1999/xlink" x="0px" y="0px"
	 width="638px" height="176px" viewBox="0 0 638 176" enable-background="new 0 0 638 176" xml:space="preserve">
<g>
	<g>
		<path fill-rule="evenodd" clip-rule="evenodd" d="M301.528,122.224c-2.878,5.926-5.758,11.852-8.628,17.781
			c-0.264,0.545-0.528,1.105-0.678,1.688c-3.094,12.074-11.938,16.16-23.234,16.16c-6.63,0-13.379-0.324-19.862-1.593
			c-9.577-1.873-11.956-5.593-11.585-15.369c0.036-0.964,0.004-1.931,0.004-3.696c-4.748,2.873-9.222,5.401-13.504,8.22
			c-4.56,2.998-8.641,6.86-13.459,9.302c-9.589,4.857-10.805,3.567-11.483-6.15c-0.713-10.226,0.503-20.591,0.979-30.891
			c0.603-13.023,0.557-25.979-3.304-38.613c-0.416-1.359-0.919-2.691-1.814-5.292c-3.033,3.871-5.982,6.673-7.742,10.089
			c-3.269,6.347-5.936,13.012-8.676,19.618c-2.203,5.309-1.944,10.649,0.34,15.941c0.861,1.995,1.504,4.096,2.11,6.188
			c1.102,3.811,0.486,7.541-2.492,10.054c-3.761,3.176-7.788,6.274-12.184,8.413c-14.48,7.045-29.827,11.583-45.669,14.429
			c-4.08,0.733-7.661-0.887-9.077-4.927c-1.259-3.595-2.461-7.62-2.093-11.295c0.987-9.85,2.871-19.605,4.306-29.413
			c0.362-2.472,0.785-5.045,0.484-7.486c-1.02-8.278-2.321-16.523-3.599-24.768c-0.193-1.25-0.838-2.43-1.698-4.823
			c-2.926,3.623-5.823,6.191-7.428,9.406c-3.516,7.039-6.498,14.356-9.461,21.656c-1.98,4.88-1.069,9.73,0.812,14.535
			c4.5,11.495,3.04,16.104-7.788,22.087c-15.981,8.831-33.271,13.883-51.259,16.67c-0.12,0.019-0.242,0.021-0.363,0.026
			c-13.062,0.577-16.304-4.89-15.679-16.105c0.395-7.073,2.268-14.65,5.59-20.875C37.25,97.231,52.52,72.04,73.464,51.051
			C86,38.49,99.711,26.986,116.635,20.637c5.873-2.203,12.507-2.638,18.853-3.173c2.126-0.179,5.414,1.302,6.363,3.021
			c0.794,1.439-0.745,4.485-1.793,6.543c-1.399,2.744-4.729,5.284-4.614,7.794c0.106,2.346,3.649,4.517,5.634,6.805
			c1.989,2.293,3.951,4.612,5.873,6.962c1.907,2.332,3.749,4.716,5.233,6.588c9.102-7.706,17.929-15.476,27.08-22.843
			c8.652-6.965,17.962-13.091,29.002-15.454c5.115-1.095,10.573-1.299,15.803-0.916c4.315,0.316,5.45,3.233,3.295,7.082
			c-1.467,2.621-3.708,4.802-5.26,7.386c-0.557,0.928-0.66,2.98-0.038,3.639C235,47.756,245.7,63.03,254.838,79.444
			c0.102,0.184,0.333,0.297,1.326,1.146c-0.302-4.732-0.307-8.761-0.855-12.715c-2.471-17.832,3.313-32.373,17.712-43.036
			c3.188-2.36,7.827-3.312,11.928-3.785c11.139-1.281,21.979,1.353,32.754,3.739c9.938,2.2,19.791,4.776,29.675,7.217
			c1.376,0.34,2.709,0.85,4.016,1.266c-9.777,13.283-19.383,26.333-28.988,39.383c0.32,0.268,0.64,0.536,0.959,0.803
			c4.338-3.707,8.52-7.617,13.04-11.087c23.353-17.931,48.537-32.637,76.636-41.792c15.288-4.981,30.9-5.809,46.622-1.374
			c3.179,0.896,3.866,2.261,2.813,5.131c-0.661,1.801-1.099,3.683-1.142,6.021c1.367-1.163,2.824-2.238,4.086-3.507
			c4.03-4.055,8.808-6.079,14.559-6.548c19.849-1.62,39.606-0.649,59.181,2.568c25.243,4.148,50.376,8.966,75.553,13.514
			c0.933,0.168,1.829,0.535,3.021,0.893c-0.385,0.928-0.54,1.792-1.021,2.396c-15.12,18.997-34.821,27.629-59.035,26.06
			c-12.114-0.786-24.238-1.429-36.346-2.304c-3.344-0.242-5.277,1.149-6.509,4.018c-1.24,2.888-2.497,5.768-4.029,9.302
			c6.427,0,12.658,0.769,18.618-0.174c9.796-1.548,19.389-4.332,29.117-6.352c7.07-1.469,14.206-1.772,21.272,0.282
			c9.977,2.901,12.841,10.278,7.206,19.021c-5.813,9.023-14.796,12.856-24.95,13.671c-14.029,1.125-28.132,1.331-42.172,2.353
			c-6.611,0.48-13.226,1.62-19.693,3.094c-3.404,0.775-7.896,2.274-7.535,6.658c0.34,4.127,5.017,4.007,8.151,4.685
			c13.832,2.991,27.541,1.392,41.12-1.787c10.856-2.541,21.579-5.739,32.52-7.805c5.85-1.104,12.069-0.878,18.058-0.42
			c4.871,0.372,5.215,1.586,4.072,6.273c-2.612,10.725-9.196,18.398-19.287,22.167c-10.406,3.887-21.213,6.795-31.989,9.574
			c-18.219,4.698-36.636,8.375-55.493,9.573c-14.298,0.908-28.383-0.228-42.293-3.504c-10.537-2.482-12.891-5.776-12.411-16.622
			c0.036-0.827,0.005-1.655,0.005-3.03c-1.449,0.767-2.592,1.336-3.701,1.963c-16.806,9.504-34.463,16.688-53.625,19.836
			c-19.055,3.13-37.496,0.973-55.303-6.422C310.299,144.727,302.738,136.086,301.528,122.224z M397.167,62
			c-0.306-0.184-0.611-0.368-0.917-0.552c-10.069,10.792-20.293,21.446-30.107,32.464c-2.757,3.096-4.659,7.112-6.338,10.975
			c-3.875,8.91-0.187,16.176,9.287,18.068c3.851,0.769,7.982,0.798,11.906,0.392c10.312-1.066,19.487-5.658,28.692-10.033
			c10.432-4.958,20.887-9.797,32.762-10.129c0.758-0.021,1.812-0.694,2.187-1.366c2.41-4.328,0.563-14.712-3.186-18.287
			c-0.798,2.181-1.623,4.31-2.356,6.472c-0.899,2.65-2.359,3.986-5.483,4.198c-7.741,0.524-15.437,1.691-23.167,2.403
			c-7.702,0.71-15.426,1.179-24.146,1.829C390.102,85.685,393.634,73.842,397.167,62z M452.153,55.253
			c8.9-1.486,17.243-2.88,25.587-4.273c0.001-0.28,0.002-0.56,0.002-0.84c-6.946-2.485-13.893-4.97-21.112-7.552
			C455.258,46.47,453.744,50.754,452.153,55.253z"/>
		<path fill="#FFFFFF" d="M219.273,15.788c1.61,0,3.213,0.062,4.797,0.178c4.315,0.316,5.45,3.233,3.295,7.082
			c-1.467,2.621-3.708,4.802-5.26,7.386c-0.557,0.928-0.66,2.98-0.038,3.639C235,47.756,245.7,63.03,254.838,79.444
			c0.102,0.184,0.333,0.297,1.326,1.146c-0.302-4.732-0.307-8.761-0.855-12.715c-2.471-17.832,3.313-32.373,17.712-43.036
			c3.188-2.36,7.827-3.312,11.928-3.785c2.017-0.232,4.023-0.335,6.022-0.335c9.04,0,17.908,2.121,26.732,4.074
			c9.938,2.2,19.791,4.776,29.675,7.217c1.376,0.34,2.709,0.85,4.016,1.266c-9.777,13.283-19.383,26.333-28.988,39.383
			c0.32,0.268,0.64,0.536,0.959,0.803c4.338-3.707,8.52-7.617,13.04-11.087c23.353-17.931,48.537-32.637,76.636-41.792
			c8.53-2.779,17.165-4.266,25.859-4.266c6.889,0,13.813,0.932,20.763,2.892c3.179,0.896,3.866,2.261,2.813,5.131
			c-0.661,1.801-1.099,3.683-1.142,6.021c1.367-1.163,2.824-2.238,4.086-3.507c4.03-4.055,8.808-6.079,14.559-6.548
			c6.339-0.517,12.671-0.771,18.987-0.771c13.465,0,26.87,1.149,40.193,3.339c25.243,4.148,50.376,8.966,75.553,13.514
			c0.933,0.168,1.829,0.535,3.021,0.893c-0.385,0.928-0.54,1.792-1.021,2.396c-13.957,17.536-31.82,26.241-53.531,26.241
			c-1.809,0-3.642-0.061-5.504-0.181c-12.114-0.786-24.238-1.429-36.346-2.304c-0.248-0.018-0.489-0.027-0.722-0.027
			c-2.905,0-4.647,1.389-5.787,4.044c-1.24,2.888-2.497,5.768-4.029,9.302c3.983,0,7.892,0.295,11.707,0.295
			c2.34,0,4.645-0.111,6.911-0.47c9.796-1.548,19.389-4.332,29.117-6.352c3.546-0.736,7.108-1.18,10.67-1.18
			c3.541,0,7.08,0.438,10.603,1.462c9.977,2.901,12.841,10.278,7.206,19.021c-5.813,9.023-14.796,12.856-24.95,13.671
			c-14.029,1.125-28.132,1.331-42.172,2.353c-6.611,0.48-13.226,1.62-19.693,3.094c-3.404,0.775-7.896,2.274-7.535,6.658
			c0.34,4.127,5.017,4.007,8.151,4.685c5.13,1.109,10.245,1.587,15.34,1.587c8.645,0,17.237-1.374,25.78-3.374
			c10.856-2.541,21.579-5.739,32.52-7.805c3.109-0.587,6.324-0.798,9.553-0.798c2.845,0,5.7,0.163,8.505,0.378
			c4.871,0.372,5.215,1.586,4.072,6.273c-2.612,10.725-9.196,18.398-19.287,22.167c-10.406,3.887-21.213,6.795-31.989,9.574
			c-18.219,4.698-36.636,8.375-55.493,9.573c-3.16,0.201-6.31,0.302-9.449,0.302c-11.066,0-22.008-1.254-32.844-3.806
			c-10.537-2.482-12.891-5.776-12.411-16.622c0.036-0.827,0.005-1.655,0.005-3.03c-1.449,0.767-2.592,1.336-3.701,1.963
			c-16.806,9.504-34.463,16.688-53.625,19.836c-5.647,0.928-11.242,1.391-16.781,1.391c-13.15,0-25.992-2.609-38.521-7.812
			c-12.18-5.059-19.742-13.699-20.951-27.562c-2.878,5.926-5.758,11.852-8.628,17.781c-0.264,0.545-0.528,1.105-0.678,1.688
			c-3.094,12.074-11.938,16.16-23.234,16.16c-6.63,0-13.379-0.324-19.862-1.593c-9.577-1.873-11.956-5.593-11.585-15.369
			c0.036-0.964,0.004-1.931,0.004-3.696c-4.748,2.873-9.222,5.401-13.504,8.22c-4.56,2.998-8.641,6.86-13.459,9.302
			c-3.545,1.796-5.946,2.752-7.598,2.752c-2.817,0-3.457-2.777-3.885-8.902c-0.713-10.226,0.503-20.591,0.979-30.891
			c0.603-13.023,0.557-25.979-3.304-38.613c-0.416-1.359-0.919-2.691-1.814-5.292c-3.033,3.871-5.982,6.673-7.742,10.089
			c-3.269,6.347-5.936,13.012-8.676,19.618c-2.203,5.309-1.944,10.649,0.34,15.941c0.861,1.995,1.504,4.096,2.11,6.188
			c1.102,3.811,0.486,7.541-2.492,10.054c-3.761,3.176-7.788,6.274-12.184,8.413c-14.48,7.045-29.827,11.583-45.669,14.429
			c-0.634,0.114-1.256,0.171-1.86,0.171c-3.281,0-6.021-1.686-7.216-5.098c-1.259-3.595-2.461-7.62-2.093-11.295
			c0.987-9.85,2.871-19.605,4.306-29.413c0.362-2.472,0.785-5.045,0.484-7.486c-1.02-8.278-2.321-16.523-3.599-24.768
			c-0.193-1.25-0.838-2.43-1.698-4.823c-2.926,3.623-5.823,6.191-7.428,9.406c-3.516,7.039-6.498,14.356-9.461,21.656
			c-1.98,4.88-1.069,9.73,0.812,14.535c4.5,11.495,3.04,16.104-7.788,22.087c-15.981,8.831-33.271,13.883-51.259,16.67
			c-0.12,0.019-0.242,0.021-0.363,0.026c-0.624,0.027-1.226,0.041-1.806,0.041c-11.557,0-14.468-5.467-13.873-16.146
			c0.395-7.073,2.268-14.65,5.59-20.875C37.25,97.231,52.52,72.04,73.464,51.051C86,38.49,99.711,26.986,116.635,20.637
			c5.873-2.203,12.507-2.638,18.853-3.173c0.118-0.01,0.239-0.015,0.363-0.015c2.12,0,5.103,1.412,6,3.036
			c0.794,1.439-0.745,4.485-1.793,6.543c-1.399,2.744-4.729,5.284-4.614,7.794c0.106,2.346,3.649,4.517,5.634,6.805
			c1.989,2.293,3.951,4.612,5.873,6.962c1.907,2.332,3.749,4.716,5.233,6.588c9.102-7.706,17.929-15.476,27.08-22.843
			c8.652-6.965,17.962-13.091,29.002-15.454C211.833,16.118,215.566,15.788,219.273,15.788 M452.153,55.253
			c8.9-1.486,17.243-2.88,25.587-4.273c0.001-0.28,0.002-0.56,0.002-0.84c-6.946-2.485-13.893-4.97-21.112-7.552
			C455.258,46.47,453.744,50.754,452.153,55.253 M376.121,123.605c1.639,0,3.274-0.093,4.877-0.259
			c10.312-1.066,19.487-5.658,28.692-10.033c10.432-4.958,20.887-9.797,32.762-10.129c0.758-0.021,1.812-0.694,2.187-1.366
			c2.41-4.328,0.563-14.712-3.186-18.287c-0.798,2.181-1.623,4.31-2.356,6.472c-0.899,2.65-2.359,3.986-5.483,4.198
			c-7.741,0.524-15.437,1.691-23.167,2.403c-7.702,0.71-15.426,1.179-24.146,1.829c3.802-12.749,7.334-24.591,10.867-36.434
			c-0.306-0.184-0.611-0.368-0.917-0.552c-10.069,10.792-20.293,21.446-30.107,32.464c-2.757,3.096-4.659,7.112-6.338,10.975
			c-3.875,8.91-0.187,16.176,9.287,18.068C371.37,123.41,373.747,123.605,376.121,123.605 M219.273,1.207
			c-4.938,0-9.668,0.477-14.059,1.417c-14.842,3.176-26.551,11.477-35.093,18.354c-5.447,4.385-10.812,8.935-16.042,13.406
			c-0.291-0.34-0.584-0.684-0.881-1.028c2.031-3.996,5.846-11.895,1.417-19.917c-4.011-7.263-12.538-10.57-18.765-10.57
			c-0.531,0-1.064,0.022-1.586,0.066l-1.189,0.099c-6.639,0.551-14.163,1.176-21.562,3.951c-20.789,7.799-36.77,22.142-48.37,33.766
			c-23.258,23.306-39.647,51.281-52.612,75.573c-4.164,7.804-6.751,17.366-7.284,26.928c-0.368,6.593-0.053,16.205,6.887,23.543
			c5.019,5.307,12.267,7.997,21.543,7.997c0.791,0,1.615-0.019,2.449-0.056l0.033-0.002l0.032-0.001
			c0.447-0.019,1.091-0.058,1.892-0.182c21.439-3.322,39.782-9.313,56.074-18.316c1.349-0.745,2.761-1.57,4.175-2.499
			c0.45,1.628,0.962,3.185,1.478,4.658c3.163,9.026,11.396,14.858,20.977,14.858c1.465,0,2.959-0.136,4.44-0.401
			c18.416-3.309,34.597-8.434,49.468-15.668c4.481-2.181,8.5-4.998,11.856-7.64c0,0.012,0.001,0.023,0.002,0.035
			c0.307,4.405,0.749,7.782,1.996,11.001c2.741,7.073,9.038,11.467,16.434,11.467c4.688,0,9.062-1.729,14.187-4.325
			c4.158-2.106,7.584-4.712,10.606-7.011c0.102-0.078,0.204-0.155,0.306-0.232c5.205,6.856,12.886,9.041,18.245,10.09
			c6.498,1.271,13.699,1.863,22.661,1.863c8.813,0,16.375-1.952,22.475-5.803c4.657-2.939,8.43-6.975,11.175-11.904
			c4.022,3.398,8.783,6.255,14.248,8.524c14.266,5.925,29.108,8.929,44.114,8.929c6.306,0,12.747-0.533,19.145-1.584
			c14.776-2.428,29.435-7.12,44.467-14.257c0.268,0.414,0.551,0.824,0.853,1.231c4.968,6.701,12.244,9.16,18.706,10.684
			c11.816,2.782,23.991,4.193,36.188,4.193c3.427,0,6.917-0.111,10.374-0.331c17.571-1.116,36.067-4.296,58.209-10.006
			c10.767-2.776,22.218-5.839,33.45-10.033c14.519-5.423,24.587-16.92,28.352-32.376c0.755-3.095,2.522-10.349-2.245-16.919
			c-2.501-3.446-5.785-5.245-8.703-6.204c4.812-7.914,5.933-16.33,3.143-23.796c-0.227-0.605-0.476-1.199-0.749-1.779
			c9.654-5.255,18.318-12.679,25.932-22.245c1.902-2.393,2.703-4.75,3.088-5.883l0.05-0.146l6.125-14.773l-15.461-4.638
			c-0.264-0.08-0.506-0.161-0.734-0.236c-0.953-0.314-2.258-0.746-3.884-1.039c-7.197-1.3-14.523-2.647-21.608-3.949
			c-17.714-3.256-36.031-6.623-54.172-9.604c-14.258-2.344-28.576-3.532-42.558-3.532c-6.729,0-13.517,0.276-20.173,0.819
			c-3.314,0.271-6.454,0.9-9.41,1.883c-1.684-1.044-3.607-1.873-5.765-2.481c-8.089-2.282-16.406-3.439-24.719-3.439
			c-10.008,0-20.228,1.676-30.376,4.983c-13.312,4.337-26.378,9.946-39.364,16.916l-13.338-4.251
			c-0.326-0.104-0.654-0.216-0.985-0.328c-1.077-0.365-2.418-0.819-3.961-1.201c-2.607-0.644-5.211-1.297-7.815-1.95
			c-7.23-1.813-14.707-3.688-22.205-5.348l-1.778-0.395c-8.886-1.979-18.075-4.024-28.105-4.024c-2.614,0-5.201,0.145-7.688,0.431
			c-5.13,0.591-12.672,1.912-18.938,6.551c-9.228,6.834-15.875,15.107-19.836,24.565c-1.696-2.122-3.42-4.2-5.177-6.239
			c0.256-0.41,0.509-0.836,0.757-1.279c3.587-6.407,3.877-13.371,0.793-19.103c-3.021-5.615-8.761-9.129-15.747-9.641
			C223.167,1.28,221.195,1.207,219.273,1.207L219.273,1.207z"/>
	</g>
</g>
</svg>
