<svg xmlns="http://www.w3.org/2000/svg" width="138" height="34"><path fill-rule="evenodd" d="M67.353 33v-7.865h5.962v1.606H69.3v1.408h3.443v1.518H69.3v1.683h4.081V33h-6.028zm-4.158.176c-2.31 0-3.883-1.727-3.883-4.081 0-2.343 1.529-4.114 3.872-4.114.913 0 1.683.264 2.244.693.682.517 1.078 1.287 1.177 2.167h-1.947c-.099-.704-.649-1.243-1.485-1.243-1.276 0-1.881 1.067-1.881 2.497 0 1.441.726 2.486 1.892 2.486.869 0 1.441-.55 1.529-1.309h1.947a3.1 3.1 0 0 1-.946 2.013c-.605.583-1.408.891-2.519.891zM56.606 33v-7.865h1.947V33h-1.947zm-5.137 0l-2.596-7.865h2.024l1.232 4.125c.176.594.363 1.386.363 1.386h.022s.198-.803.363-1.386l1.221-4.125h1.969L53.482 33h-2.013zm-8.899 0v-2.904l-2.662-4.961h2.123l1.012 2.035c.264.539.517 1.199.517 1.199h.022s.275-.66.539-1.199l1.001-2.035h2.057l-2.662 4.961V33H42.57zm-9.515 0v-7.865h3.795c.814 0 1.419.198 1.837.539.451.374.682.88.682 1.507 0 .781-.407 1.276-1.1 1.54v.033c.858.264 1.408.99 1.408 1.925 0 .792-.286 1.364-.803 1.76-.462.363-1.111.561-1.936.561h-3.883zm1.925-1.562h1.738c.638 0 1.034-.363 1.034-.924 0-.627-.462-.946-1.056-.946H34.98v1.87zm0-3.19h1.584c.561 0 .946-.275.946-.792 0-.495-.363-.781-.935-.781H34.98v1.573zM23.595 33v-7.865h3.355c2.178 0 3.641 1.573 3.641 3.982 0 1.386-.484 2.497-1.364 3.168-.616.462-1.408.715-2.398.715h-3.234zm1.947-1.639h1.144c1.276 0 1.936-.803 1.936-2.244 0-1.43-.693-2.354-1.914-2.354h-1.166v4.598zm-6.6 1.826c-2.376 0-3.883-1.749-3.883-4.103 0-2.354 1.507-4.103 3.883-4.103 2.387 0 3.894 1.749 3.894 4.103 0 2.354-1.507 4.103-3.894 4.103zm.011-1.584c1.276 0 1.903-1.089 1.903-2.519 0-1.43-.627-2.53-1.903-2.53-1.265 0-1.914 1.1-1.914 2.53 0 1.43.649 2.519 1.914 2.519zm-8.228 1.584c-2.376 0-3.883-1.749-3.883-4.103 0-2.354 1.507-4.103 3.883-4.103 2.387 0 3.894 1.749 3.894 4.103 0 2.354-1.507 4.103-3.894 4.103zm.011-1.584c1.276 0 1.903-1.089 1.903-2.519 0-1.43-.627-2.53-1.903-2.53-1.265 0-1.914 1.1-1.914 2.53 0 1.43.649 2.519 1.914 2.519zM.539 33v-7.865h5.852v1.639H2.486v1.595h3.267v1.573H2.486V33H.539zm136.938-22.768c.347.71.523 1.513.523 2.386 0 1.61-.59 2.93-1.753 3.927-1.123.965-2.583 1.455-4.337 1.455-1.096 0-2.058-.125-2.86-.372-.458-.14-.949-.34-1.459-.59a16.206 16.206 0 0 1-1.187-.65l-.38-.23v-5.163l1.28 1.066c1.555 1.296 3.008 1.953 4.32 1.953.585 0 1.049-.118 1.377-.35.256-.182.362-.371.366-.651 0-.299-.085-.723-.816-1.147a60.403 60.403 0 0 0-2.541-1.293c-.87-.396-1.62-.854-2.224-1.357a6.147 6.147 0 0 1-.861-.862c-.734-.903-1.106-1.965-1.106-3.156 0-1.59.602-2.878 1.79-3.828C128.744.46 130.238 0 132.047 0c1.673 0 3.307.425 4.858 1.263l.41.225v4.606l-1.185-.717c-1.52-.922-2.863-1.39-3.993-1.39-.612 0-1.075.107-1.378.316-.226.156-.318.32-.318.564 0 .31.296.658.855 1.008.064.044.153.094.318.18.419.214 1.17.57 2.23 1.058 1.422.672 2.473 1.444 3.126 2.298.198.26.368.535.507.82zm-22.635.762v2.812h7.388v3.988h-12.032V.206h11.872v3.988h-7.228v2.814h6.92v3.986h-6.92zm-13.118 6.8V.206h4.644v17.588h-4.644zM93.252 6.949V.206h4.643v17.588h-4.643v-6.766h-6.717v6.766h-4.646V.206h4.646V6.95h6.717zm-19.211 6.47c.747-.238 1.714-.677 2.872-1.306l1.152-.628v4.705l-.42.22c-1.08.566-2.096.978-3.015 1.22-.932.246-2.02.37-3.236.37-1.8 0-3.436-.368-4.864-1.093a8.677 8.677 0 0 1-1.845-1.259h-.003l-.093-.086-.01-.01-.117-.112a8.524 8.524 0 0 1-1.372-1.735 8.764 8.764 0 0 1-1.247-4.562c0-1.752.432-3.352 1.284-4.754a8.662 8.662 0 0 1 3.534-3.26C68.133.38 69.805 0 71.632 0c.963 0 1.92.111 2.842.331.92.219 1.92.594 2.973 1.114l.436.216v4.753l-1.169-.672c-.924-.534-1.786-.923-2.561-1.158a8.263 8.263 0 0 0-2.384-.344c-1.004 0-1.917.208-2.715.619a4.416 4.416 0 0 0-1.815 1.692 4.752 4.752 0 0 0-.65 2.455c0 .923.217 1.756.644 2.478.28.473.644.882 1.084 1.217.225.171.467.323.72.45.8.404 1.718.609 2.732.609.793 0 1.557-.115 2.272-.341zM53.608 10.04V.206h4.576v17.588h-3.792L46 7.794v10h-4.576V.206h3.848l8.336 9.835zm-20.655-.038v-9.9h4.644v10.301c0 2.379-.736 4.248-2.188 5.556-1.427 1.285-3.439 1.937-5.98 1.937-1.59 0-2.998-.293-4.183-.87a6.84 6.84 0 0 1-1.422-.92 6.27 6.27 0 0 1-1.397-1.682c-.638-1.112-.961-2.427-.961-3.906V.103h4.657V10.21c0 .829.115 1.478.343 1.93.206.408.554.758 1.034 1.04l.046.026c.531.301 1.162.452 1.883.452.81 0 1.498-.145 2.042-.43.517-.274.88-.629 1.11-1.085.247-.487.372-1.207.372-2.139zM8.797 6.085L13.673.206h3.897v17.588h-4.644V7.768l-4.128 4.6-4.154-4.602v10.028H0V.206h3.922l4.875 5.879z"/></svg>